                                                                        S      1
,,22Hサーボホーン2 v2,22Hサーボホーン2 v2,7Hunknown,7HunknowG      1
n,32,38,7,99,15,,1.,2,2HMM,1,0.08,15H20230507.221611,0.01,10000.,7HunknoG      2
wn,7Hunknown,11,0,15H20230503.075946;                                   G      3
     408       1                                                00000001D      1
     408       0               1       0                               0D      2
     308       2                                                00010200D      3
     308       0               1       0                               0D      4
     186       3                                                00010000D      5
     186            -225       1       0                               0D      6
     514       4                                                00010000D      7
     514                       2       1                               0D      8
     510       6                                                00010000D      9
     510            -225       1       1                               0D     10
     510       7                                                00010000D     11
     510            -225       1       1                               0D     12
     510       8                                                00010000D     13
     510            -225       1       1                               0D     14
     510       9                                                00010000D     15
     510            -225       1       1                               0D     16
     510      10                                                00010000D     17
     510            -225       1       1                               0D     18
     510      11                                                00010000D     19
     510            -225       1       1                               0D     20
     510      12                                                00010000D     21
     510            -225       1       1                               0D     22
     510      13                                                00010000D     23
     510            -225       1       1                               0D     24
     510      14                                                00010000D     25
     510            -225       1       1                               0D     26
     510      15                                                00010000D     27
     510            -225       1       1                               0D     28
     510      16                                                00010000D     29
     510            -225       1       1                               0D     30
     510      17                                                00010000D     31
     510            -225       1       1                               0D     32
     510      18                                                00010000D     33
     510            -225       1       1                               0D     34
     510      19                                                00010000D     35
     510            -225       1       1                               0D     36
     510      20                                                00010000D     37
     510            -225       1       1                               0D     38
     510      21                                                00010000D     39
     510            -225       1       1                               0D     40
     510      22                                                00010000D     41
     510            -225       1       1                               0D     42
     508      23                                                00010000D     43
     508                       1       1                               0D     44
     508      24                                                00010000D     45
     508                       1       1                               0D     46
     508      25                                                00010000D     47
     508                       1       1                               0D     48
     508      26                                                00010000D     49
     508                       1       1                               0D     50
     508      27                                                00010000D     51
     508                       1       1                               0D     52
     508      28                                                00010000D     53
     508                       1       1                               0D     54
     508      29                                                00010000D     55
     508                       1       1                               0D     56
     508      30                                                00010000D     57
     508                       1       1                               0D     58
     508      31                                                00010000D     59
     508                       1       1                               0D     60
     508      32                                                00010000D     61
     508                       1       1                               0D     62
     508      33                                                00010000D     63
     508                       1       1                               0D     64
     508      34                                                00010000D     65
     508                       1       1                               0D     66
     508      35                                                00010000D     67
     508                       1       1                               0D     68
     508      36                                                00010000D     69
     508                       1       1                               0D     70
     508      37                                                00010000D     71
     508                       1       1                               0D     72
     508      38                                                00010000D     73
     508                       1       1                               0D     74
     508      39                                                00010000D     75
     508                       1       1                               0D     76
     508      40                                                00010000D     77
     508                       1       1                               0D     78
     508      41                                                00010000D     79
     508                       1       1                               0D     80
     508      42                                                00010000D     81
     508                       1       1                               0D     82
     508      43                                                00010000D     83
     508                       1       1                               0D     84
     508      44                                                00010000D     85
     508                       1       1                               0D     86
     508      45                                                00010000D     87
     508                       1       1                               0D     88
     508      46                                                00010000D     89
     508                       1       1                               0D     90
     508      47                                                00010000D     91
     508                       1       1                               0D     92
     508      48                                                00010000D     93
     508                       1       1                               0D     94
     508      49                                                00010000D     95
     508                       1       1                               0D     96
     508      50                                                00010000D     97
     508                       1       1                               0D     98
     508      51                                                00010000D     99
     508                       2       1                               0D    100
     508      53                                                00010000D    101
     508                       1       1                               0D    102
     508      54                                                00010000D    103
     508                       1       1                               0D    104
     126      55                                                00010000D    105
     126       0               7       0                               0D    106
     126      62                                                00010000D    107
     126       0               4       0                               0D    108
     126      66                                                00010000D    109
     126       0               7       0                               0D    110
     126      73                                                00010000D    111
     126       0               4       0                               0D    112
     126      77                                                00010000D    113
     126       0              10       0                               0D    114
     126      87                                                00010000D    115
     126       0              10       0                               0D    116
     126      97                                                00010000D    117
     126       0              10       0                               0D    118
     126     107                                                00010000D    119
     126       0              10       0                               0D    120
     126     117                                                00010000D    121
     126       0              10       0                               0D    122
     126     127                                                00010000D    123
     126       0               7       0                               0D    124
     126     134                                                00010000D    125
     126       0               3       0                               0D    126
     126     137                                                00010000D    127
     126       0               3       0                               0D    128
     126     140                                                00010000D    129
     126       0               4       0                               0D    130
     126     144                                                00010000D    131
     126       0               2       0                               0D    132
     126     146                                                00010000D    133
     126       0               3       0                               0D    134
     126     149                                                00010000D    135
     126       0               2       0                               0D    136
     126     151                                                00010000D    137
     126       0               2       0                               0D    138
     126     153                                                00010000D    139
     126       0              10       0                               0D    140
     126     163                                                00010000D    141
     126       0               2       0                               0D    142
     126     165                                                00010000D    143
     126       0              10       0                               0D    144
     126     175                                                00010000D    145
     126       0               2       0                               0D    146
     126     177                                                00010000D    147
     126       0              10       0                               0D    148
     126     187                                                00010000D    149
     126       0               2       0                               0D    150
     126     189                                                00010000D    151
     126       0              10       0                               0D    152
     126     199                                                00010000D    153
     126       0               2       0                               0D    154
     126     201                                                00010000D    155
     126       0              10       0                               0D    156
     126     211                                                00010000D    157
     126       0              10       0                               0D    158
     126     221                                                00010000D    159
     126       0               9       0                               0D    160
     126     230                                                00010000D    161
     126       0               2       0                               0D    162
     126     232                                                00010000D    163
     126       0              10       0                               0D    164
     126     242                                                00010000D    165
     126       0               9       0                               0D    166
     126     251                                                00010000D    167
     126       0              10       0                               0D    168
     126     261                                                00010000D    169
     126       0               2       0                               0D    170
     126     263                                                00010000D    171
     126       0              10       0                               0D    172
     126     273                                                00010000D    173
     126       0               9       0                               0D    174
     126     282                                                00010000D    175
     126       0               2       0                               0D    176
     126     284                                                00010000D    177
     126       0              11       0                               0D    178
     126     295                                                00010000D    179
     126       0               6       0                               0D    180
     126     301                                                00010000D    181
     126       0               2       0                               0D    182
     128     303                                                00010000D    183
     128       0    -225       5       0                               0D    184
     128     308                                                00010000D    185
     128       0    -225      10       0                               0D    186
     128     318                                                00010000D    187
     128       0    -225       6       0                               0D    188
     128     324                                                00010000D    189
     128       0    -225       6       0                               0D    190
     128     330                                                00010000D    191
     128       0    -225      13       0                               0D    192
     128     343                                                00010000D    193
     128       0    -225      13       0                               0D    194
     128     356                                                00010000D    195
     128       0    -225      13       0                               0D    196
     128     369                                                00010000D    197
     128       0    -225      13       0                               0D    198
     128     382                                                00010000D    199
     128       0    -225      13       0                               0D    200
     128     395                                                00010000D    201
     128       0    -225       6       0                               0D    202
     128     401                                                00010000D    203
     128       0    -225      12       0                               0D    204
     128     413                                                00010000D    205
     128       0    -225       3       0                               0D    206
     128     416                                                00010000D    207
     128       0    -225      12       0                               0D    208
     128     428                                                00010000D    209
     128       0    -225       3       0                               0D    210
     128     431                                                00010000D    211
     128       0    -225      11       0                               0D    212
     128     442                                                00010000D    213
     128       0    -225      18       0                               0D    214
     128     460                                                00010000D    215
     128       0    -225       7       0                               0D    216
     502     467                                                00010000D    217
     502                      14       1                               0D    218
     504     481                                                00010001D    219
     504                      11       1                               0D    220
     406     492                                                00000000D    221
     406                       1      15                               0D    222
     406     493                                                00000000D    223
     406                       1      15                               0D    224
     314     494                                                00000200D    225
     314                       2       0                               0D    226
408,3,0.,0.,0.,1.,0,1,223;                                             1P      1
308,0,22Hコンポーネント1,1,5;                                   3P      2
186,7,1,0,0,1,221;                                                     5P      3
514,17,9,1,11,1,13,1,15,1,17,1,19,1,21,1,23,1,25,1,27,1,29,1,31,       7P      4
1,33,1,35,1,37,1,39,1,41,1;                                            7P      5
510,183,6,1,43,45,47,49,51,53;                                         9P      6
510,185,1,1,55;                                                       11P      7
510,187,1,1,57;                                                       13P      8
510,189,1,1,59;                                                       15P      9
510,191,1,1,61;                                                       17P     10
510,193,1,1,63;                                                       19P     11
510,195,1,1,65;                                                       21P     12
510,197,1,1,67;                                                       23P     13
510,199,1,1,69;                                                       25P     14
510,201,7,1,71,73,75,77,79,81,83;                                     27P     15
510,203,1,1,85;                                                       29P     16
510,205,2,1,87,89;                                                    31P     17
510,207,1,1,91;                                                       33P     18
510,209,2,1,93,95;                                                    35P     19
510,211,1,1,97;                                                       37P     20
510,213,1,1,99;                                                       39P     21
510,215,2,1,101,103;                                                  41P     22
508,4,0,219,1,1,0,0,219,2,1,0,0,219,3,0,0,0,219,4,1,0;                43P     23
508,1,0,219,5,1,0;                                                    45P     24
508,1,0,219,6,1,0;                                                    47P     25
508,1,0,219,7,1,0;                                                    49P     26
508,1,0,219,8,1,0;                                                    51P     27
508,1,0,219,9,1,0;                                                    53P     28
508,4,0,219,10,1,0,0,219,11,1,0,0,219,1,0,0,0,219,12,0,0;             55P     29
508,4,0,219,13,0,0,0,219,14,0,0,0,219,2,0,0,0,219,11,0,0;             57P     30
508,4,0,219,15,1,0,0,219,12,1,0,0,219,4,0,0,0,219,16,0,0;             59P     31
508,4,0,219,5,0,0,0,219,17,1,0,0,219,18,1,0,0,219,17,0,0;             61P     32
508,4,0,219,6,0,0,0,219,19,1,0,0,219,20,1,0,0,219,19,0,0;             63P     33
508,4,0,219,7,0,0,0,219,21,1,0,0,219,22,1,0,0,219,21,0,0;             65P     34
508,4,0,219,8,0,0,0,219,23,1,0,0,219,24,1,0,0,219,23,0,0;             67P     35
508,4,0,219,9,0,0,0,219,25,1,0,0,219,26,1,0,0,219,25,0,0;             69P     36
508,4,0,219,27,0,0,0,219,13,1,0,0,219,10,0,0,0,219,15,0,0;            71P     37
508,1,0,219,18,0,0;                                                   73P     38
508,1,0,219,20,0,0;                                                   75P     39
508,1,0,219,22,0,0;                                                   77P     40
508,1,0,219,24,0,0;                                                   79P     41
508,1,0,219,26,0,0;                                                   81P     42
508,1,0,219,28,1,0;                                                   83P     43
508,4,0,219,28,0,0,0,219,29,1,0,0,219,30,1,0,0,219,29,0,0;            85P     44
508,1,0,219,30,0,0;                                                   87P     45
508,1,0,219,31,0,0;                                                   89P     46
508,4,0,219,32,0,0,0,219,33,1,0,0,219,34,1,0,0,219,33,0,0;            91P     47
508,1,0,219,34,0,0;                                                   93P     48
508,1,0,219,35,0,0;                                                   95P     49
508,4,0,219,35,1,0,0,219,36,1,0,0,219,31,1,0,0,219,36,0,0;            97P     50
508,8,0,219,37,0,0,0,219,38,0,0,0,219,39,1,0,0,219,14,1,0,0,219,      99P     51
27,1,0,0,219,16,1,0,0,219,3,1,0,0,219,39,0,0;                         99P     52
508,2,0,219,37,1,0,0,219,38,1,0;                                     101P     53
508,1,0,219,32,1,0;                                                  103P     54
126,4,2,0,0,0,0,0.,0.,0.,1.52153319903764,1.52153319903764,          105P     55
3.04306639807527,3.04306639807527,3.04306639807527,1.,               105P     56
0.72430767096038,1.,0.724307670960383,1.,20.4231080110603,           105P     57
-2.49696704375784,2.,22.8,-2.37977909528454,2.,22.8,                 105P     58
4.44089209850063D-15,2.,22.8,2.37977909528455,2.,                    105P     59
20.4231080110603,2.49696704375784,2.,0.,3.04306639807527,0.,0.,      105P     60
0.;                                                                  105P     61
126,1,1,0,0,1,0,-1.83382248739303,-1.83382248739303,                 107P     62
2.22044604925031D-16,2.22044604925031D-16,1.,1.,                     107P     63
20.4231080110603,2.49696704375784,2.,2.10713075057055,3.4,2.,        107P     64
-1.83382248739303,2.22044604925031D-16,0.,0.,0.;                     107P     65
126,4,2,0,0,0,0,1.10962206596014,1.10962206596014,                   109P     66
1.10962206596014,2.12560735977497,2.12560735977497,                  109P     67
3.14159265358979,3.14159265358979,3.14159265358979,1.,               109P     68
0.873722692747144,1.,0.873722692747143,1.,2.10713075057055,-3.4,     109P     69
2.,4.,-2.22690499932877,2.,4.,5.55111512312578D-16,2.,4.,            109P     70
2.22690499932877,2.,2.10713075057055,3.4,2.,1.10962206596014,        109P     71
3.14159265358979,0.,0.,0.;                                           109P     72
126,1,1,0,0,1,0,8.31657091113051D-17,8.31657091113051D-17,           111P     73
1.83382248739303,1.83382248739303,1.,1.,2.10713075057055,-3.4,       111P     74
2.,20.4231080110603,-2.49696704375784,2.,8.31657091113051D-17,       111P     75
1.83382248739303,0.,0.,0.;                                           111P     76
126,8,2,0,1,0,0,-3.14159265358979,-3.14159265358979,                 113P     77
-3.14159265358979,-1.5707963267949,-1.5707963267949,0.,0.,           113P     78
1.5707963267949,1.5707963267949,3.14159265358979,                    113P     79
3.14159265358979,3.14159265358979,1.,0.707106781186544,1.,           113P     80
0.707106781186544,1.,0.707106781186544,1.,0.707106781186544,1.,      113P     81
14.7,7.34788079488413D-17,2.,14.7,0.600000000000001,2.,15.3,         113P     82
0.600000000000001,2.,15.9,0.6,2.,15.9,0.,2.,15.9,-0.6,2.,15.3,       113P     83
-0.600000000000001,2.,14.7,-0.600000000000001,2.,14.7,               113P     84
-7.34788079488413D-17,2.,-3.14159265358979,3.14159265358979,0.,      113P     85
0.,0.;                                                               113P     86
126,8,2,0,1,0,0,-3.14159265358979,-3.14159265358979,                 115P     87
-3.14159265358979,-1.5707963267949,-1.5707963267949,0.,0.,           115P     88
1.5707963267949,1.5707963267949,3.14159265358979,                    115P     89
3.14159265358979,3.14159265358979,1.,0.707106781186544,1.,           115P     90
0.707106781186544,1.,0.707106781186544,1.,0.707106781186544,1.,      115P     91
12.2,7.34788079488413D-17,2.,12.2,0.600000000000001,2.,12.8,         115P     92
0.600000000000001,2.,13.4,0.6,2.,13.4,0.,2.,13.4,-0.6,2.,12.8,       115P     93
-0.600000000000001,2.,12.2,-0.600000000000001,2.,12.2,               115P     94
-7.34788079488413D-17,2.,-3.14159265358979,3.14159265358979,0.,      115P     95
0.,0.;                                                               115P     96
126,8,2,0,1,0,0,-3.14159265358979,-3.14159265358979,                 117P     97
-3.14159265358979,-1.5707963267949,-1.5707963267949,0.,0.,           117P     98
1.5707963267949,1.5707963267949,3.14159265358979,                    117P     99
3.14159265358979,3.14159265358979,1.,0.707106781186549,1.,           117P    100
0.707106781186544,1.,0.707106781186544,1.,0.707106781186549,1.,      117P    101
9.7,7.34788079488413D-17,2.,9.7,0.600000000000001,2.,10.3,           117P    102
0.600000000000001,2.,10.9,0.6,2.,10.9,0.,2.,10.9,-0.6,2.,10.3,       117P    103
-0.600000000000001,2.,9.7,-0.600000000000001,2.,9.7,                 117P    104
-7.34788079488413D-17,2.,-3.14159265358979,3.14159265358979,0.,      117P    105
0.,0.;                                                               117P    106
126,8,2,0,1,0,0,-3.14159265358979,-3.14159265358979,                 119P    107
-3.14159265358979,-1.5707963267949,-1.5707963267949,0.,0.,           119P    108
1.5707963267949,1.5707963267949,3.14159265358979,                    119P    109
3.14159265358979,3.14159265358979,1.,0.707106781186544,1.,           119P    110
0.707106781186544,1.,0.707106781186544,1.,0.707106781186544,1.,      119P    111
17.2,7.34788079488413D-17,2.,17.2,0.600000000000001,2.,17.8,         119P    112
0.600000000000001,2.,18.4,0.6,2.,18.4,0.,2.,18.4,-0.6,2.,17.8,       119P    113
-0.600000000000001,2.,17.2,-0.600000000000001,2.,17.2,               119P    114
-7.34788079488413D-17,2.,-3.14159265358979,3.14159265358979,0.,      119P    115
0.,0.;                                                               119P    116
126,8,2,0,1,0,0,-3.14159265358979,-3.14159265358979,                 121P    117
-3.14159265358979,-1.5707963267949,-1.5707963267949,0.,0.,           121P    118
1.5707963267949,1.5707963267949,3.14159265358979,                    121P    119
3.14159265358979,3.14159265358979,1.,0.707106781186544,1.,           121P    120
0.707106781186555,1.,0.707106781186555,1.,0.707106781186544,1.,      121P    121
19.7,7.34788079488413D-17,2.,19.7,0.600000000000001,2.,20.3,         121P    122
0.600000000000001,2.,20.9,0.6,2.,20.9,0.,2.,20.9,-0.6,2.,20.3,       121P    123
-0.600000000000001,2.,19.7,-0.600000000000001,2.,19.7,               121P    124
-7.34788079488413D-17,2.,-3.14159265358979,3.14159265358979,0.,      121P    125
0.,0.;                                                               121P    126
126,4,2,0,0,0,0,0.,0.,0.,1.52153319903764,1.52153319903764,          123P    127
3.04306639807527,3.04306639807527,3.04306639807527,1.,               123P    128
0.72430767096038,1.,0.724307670960383,1.,20.4231080110603,           123P    129
-2.49696704375784,0.,22.8,-2.37977909528454,0.,22.8,                 123P    130
4.44089209850063D-15,0.,22.8,2.37977909528455,0.,                    123P    131
20.4231080110603,2.49696704375784,0.,0.,3.04306639807527,0.,0.,      123P    132
0.;                                                                  123P    133
126,1,1,0,0,1,0,0.,0.,0.2,0.2,1.,1.,20.4231080110603,                125P    134
2.49696704375784,0.,20.4231080110603,2.49696704375784,2.,0.,0.2,     125P    135
0.,0.,0.;                                                            125P    136
126,1,1,0,0,1,0,0.,0.,0.2,0.2,1.,1.,20.4231080110603,                127P    137
-2.49696704375784,0.,20.4231080110603,-2.49696704375784,2.,0.,       127P    138
0.2,0.,0.,0.;                                                        127P    139
126,1,1,0,0,1,0,5.81773530421016D-17,5.81773530421016D-17,           129P    140
1.83382248739303,1.83382248739303,1.,1.,2.10713075057055,3.4,0.,     129P    141
20.4231080110603,2.49696704375784,0.,5.81773530421016D-17,           129P    142
1.83382248739303,0.,0.,0.;                                           129P    143
126,1,1,0,0,1,0,-0.2,-0.2,0.,0.,1.,1.,2.10713075057054,3.4,2.,       131P    144
2.10713075057054,3.4,0.,-0.2,0.,0.,0.,0.;                            131P    145
126,1,1,0,0,1,0,0.,0.,1.83382248739303,1.83382248739303,1.,1.,       133P    146
2.10713075057055,-3.4,0.,20.4231080110603,-2.49696704375784,0.,      133P    147
0.,1.83382248739303,0.,0.,0.;                                        133P    148
126,1,1,0,0,1,0,0.,0.,0.2,0.2,1.,1.,2.10713075057055,-3.4,0.,        135P    149
2.10713075057055,-3.4,2.,0.,0.2,0.,0.,0.;                            135P    150
126,1,1,0,0,1,0,-3.33333333333333,-3.33333333333333,0.,0.,1.,1.,     137P    151
14.7,0.,2.,14.7,0.,0.,-3.33333333333333,0.,0.,0.,0.;                 137P    152
126,8,2,0,1,0,0,-3.14159265358979,-3.14159265358979,                 139P    153
-3.14159265358979,-1.5707963267949,-1.5707963267949,0.,0.,           139P    154
1.5707963267949,1.5707963267949,3.14159265358979,                    139P    155
3.14159265358979,3.14159265358979,1.,0.707106781186544,1.,           139P    156
0.707106781186544,1.,0.707106781186544,1.,0.707106781186544,1.,      139P    157
14.7,7.34788079488413D-17,0.,14.7,0.600000000000001,0.,15.3,         139P    158
0.600000000000001,0.,15.9,0.6,0.,15.9,0.,0.,15.9,-0.6,0.,15.3,       139P    159
-0.600000000000001,0.,14.7,-0.600000000000001,0.,14.7,               139P    160
-7.34788079488413D-17,0.,-3.14159265358979,3.14159265358979,0.,      139P    161
0.,0.;                                                               139P    162
126,1,1,0,0,1,0,-3.33333333333333,-3.33333333333333,0.,0.,1.,1.,     141P    163
12.2,0.,2.,12.2,0.,0.,-3.33333333333333,0.,0.,0.,0.;                 141P    164
126,8,2,0,1,0,0,-3.14159265358979,-3.14159265358979,                 143P    165
-3.14159265358979,-1.5707963267949,-1.5707963267949,0.,0.,           143P    166
1.5707963267949,1.5707963267949,3.14159265358979,                    143P    167
3.14159265358979,3.14159265358979,1.,0.707106781186544,1.,           143P    168
0.707106781186544,1.,0.707106781186544,1.,0.707106781186544,1.,      143P    169
12.2,7.34788079488413D-17,0.,12.2,0.600000000000001,0.,12.8,         143P    170
0.600000000000001,0.,13.4,0.6,0.,13.4,0.,0.,13.4,-0.6,0.,12.8,       143P    171
-0.600000000000001,0.,12.2,-0.600000000000001,0.,12.2,               143P    172
-7.34788079488413D-17,0.,-3.14159265358979,3.14159265358979,0.,      143P    173
0.,0.;                                                               143P    174
126,1,1,0,0,1,0,-3.33333333333333,-3.33333333333333,0.,0.,1.,1.,     145P    175
9.7,0.,2.,9.7,0.,0.,-3.33333333333333,0.,0.,0.,0.;                   145P    176
126,8,2,0,1,0,0,-3.14159265358979,-3.14159265358979,                 147P    177
-3.14159265358979,-1.5707963267949,-1.5707963267949,0.,0.,           147P    178
1.5707963267949,1.5707963267949,3.14159265358979,                    147P    179
3.14159265358979,3.14159265358979,1.,0.707106781186549,1.,           147P    180
0.707106781186544,1.,0.707106781186544,1.,0.707106781186549,1.,      147P    181
9.7,7.34788079488413D-17,0.,9.7,0.600000000000001,0.,10.3,           147P    182
0.600000000000001,0.,10.9,0.6,0.,10.9,0.,0.,10.9,-0.6,0.,10.3,       147P    183
-0.600000000000001,0.,9.7,-0.600000000000001,0.,9.7,                 147P    184
-7.34788079488413D-17,0.,-3.14159265358979,3.14159265358979,0.,      147P    185
0.,0.;                                                               147P    186
126,1,1,0,0,1,0,-3.33333333333333,-3.33333333333333,0.,0.,1.,1.,     149P    187
17.2,0.,2.,17.2,0.,0.,-3.33333333333333,0.,0.,0.,0.;                 149P    188
126,8,2,0,1,0,0,-3.14159265358979,-3.14159265358979,                 151P    189
-3.14159265358979,-1.5707963267949,-1.5707963267949,0.,0.,           151P    190
1.5707963267949,1.5707963267949,3.14159265358979,                    151P    191
3.14159265358979,3.14159265358979,1.,0.707106781186544,1.,           151P    192
0.707106781186544,1.,0.707106781186544,1.,0.707106781186544,1.,      151P    193
17.2,7.34788079488413D-17,0.,17.2,0.600000000000001,0.,17.8,         151P    194
0.600000000000001,0.,18.4,0.6,0.,18.4,0.,0.,18.4,-0.6,0.,17.8,       151P    195
-0.600000000000001,0.,17.2,-0.600000000000001,0.,17.2,               151P    196
-7.34788079488413D-17,0.,-3.14159265358979,3.14159265358979,0.,      151P    197
0.,0.;                                                               151P    198
126,1,1,0,0,1,0,-3.33333333333333,-3.33333333333333,0.,0.,1.,1.,     153P    199
19.7,0.,2.,19.7,0.,0.,-3.33333333333333,0.,0.,0.,0.;                 153P    200
126,8,2,0,1,0,0,-3.14159265358979,-3.14159265358979,                 155P    201
-3.14159265358979,-1.5707963267949,-1.5707963267949,0.,0.,           155P    202
1.5707963267949,1.5707963267949,3.14159265358979,                    155P    203
3.14159265358979,3.14159265358979,1.,0.707106781186544,1.,           155P    204
0.707106781186555,1.,0.707106781186555,1.,0.707106781186544,1.,      155P    205
19.7,7.34788079488413D-17,0.,19.7,0.600000000000001,0.,20.3,         155P    206
0.600000000000001,0.,20.9,0.6,0.,20.9,0.,0.,20.9,-0.6,0.,20.3,       155P    207
-0.600000000000001,0.,19.7,-0.600000000000001,0.,19.7,               155P    208
-7.34788079488413D-17,0.,-3.14159265358979,3.14159265358979,0.,      155P    209
0.,0.;                                                               155P    210
126,6,2,0,0,0,0,-3.14159265358979,-3.14159265358979,                 157P    211
-3.14159265358979,-1.72452108040648,-1.72452108040648,               157P    212
-0.307449507223169,-0.307449507223169,1.10962206596014,              157P    213
1.10962206596014,1.10962206596014,1.,0.75931548646322,1.,            157P    214
0.75931548646322,1.,0.759315486463219,1.,2.10713075057055,3.4,       157P    215
0.,-0.806621325104076,5.20578135240964,0.,-3.03726194585288,         157P    216
2.60289067620482,0.,-5.26790256660168,1.94289029309402D-15,0.,       157P    217
-3.03726194585288,-2.60289067620482,0.,-0.806621325104078,           157P    218
-5.20578135240964,0.,2.10713075057055,-3.4,0.,-3.14159265358979,     157P    219
1.10962206596014,0.,0.,0.;                                           157P    220
126,8,2,0,1,0,0,-3.14159265358979,-3.14159265358979,                 159P    221
-3.14159265358979,-1.5707963267949,-1.5707963267949,0.,0.,           159P    222
1.5707963267949,1.5707963267949,3.14159265358979,                    159P    223
3.14159265358979,3.14159265358979,1.,0.707106781186548,1.,           159P    224
0.707106781186548,1.,0.707106781186548,1.,0.707106781186548,1.,      159P    225
-3.1,-3.7964050773568D-16,0.,-3.1,-3.1,0.,1.8982025386784D-16,       159P    226
-3.1,0.,3.1,-3.1,0.,3.1,0.,0.,3.1,3.1,0.,1.8982025386784D-16,        159P    227
3.1,0.,-3.1,3.1,0.,-3.1,3.7964050773568D-16,0.,                      159P    228
-3.14159265358979,3.14159265358979,0.,0.,0.;                         159P    229
126,1,1,0,0,1,0,0.,0.,0.67741935483871,0.67741935483871,1.,1.,       161P    230
-3.1,0.,0.,-3.1,0.,2.1,0.,0.67741935483871,0.,0.,0.;                 161P    231
126,8,2,0,1,0,0,-3.14159265358979,-3.14159265358979,                 163P    232
-3.14159265358979,-1.5707963267949,-1.5707963267949,0.,0.,           163P    233
1.5707963267949,1.5707963267949,3.14159265358979,                    163P    234
3.14159265358979,3.14159265358979,1.,0.707106781186548,1.,           163P    235
0.707106781186548,1.,0.707106781186548,1.,0.707106781186548,1.,      163P    236
-3.1,-3.7964050773568D-16,2.1,-3.1,-3.1,2.1,1.8982025386784D-16,     163P    237
-3.1,2.1,3.1,-3.1,2.1,3.1,0.,2.1,3.1,3.1,2.1,                        163P    238
1.8982025386784D-16,3.1,2.1,-3.1,3.1,2.1,-3.1,                       163P    239
3.7964050773568D-16,2.1,-3.14159265358979,3.14159265358979,0.,       163P    240
0.,0.;                                                               163P    241
126,8,2,0,1,0,0,-3.14159265358979,-3.14159265358979,                 165P    242
-3.14159265358979,-1.5707963267949,-1.5707963267949,0.,0.,           165P    243
1.5707963267949,1.5707963267949,3.14159265358979,                    165P    244
3.14159265358979,3.14159265358979,1.,0.707106781186548,1.,           165P    245
0.707106781186548,1.,0.707106781186548,1.,0.707106781186548,1.,      165P    246
1.,-1.22464679914735D-16,2.1,1.,-1.,2.1,-6.12323399573677D-17,       165P    247
-1.,2.1,-1.,-1.,2.1,-1.,0.,2.1,-1.,1.,2.1,-6.12323399573677D-17,     165P    248
1.,2.1,1.,1.,2.1,1.,1.22464679914735D-16,2.1,-3.14159265358979,      165P    249
3.14159265358979,0.,0.,0.;                                           165P    250
126,8,2,0,1,0,0,-3.14159265358979,-3.14159265358979,                 167P    251
-3.14159265358979,-1.5707963267949,-1.5707963267949,0.,0.,           167P    252
1.5707963267949,1.5707963267949,3.14159265358979,                    167P    253
3.14159265358979,3.14159265358979,1.,0.707106781186548,1.,           167P    254
0.707106781186548,1.,0.707106781186548,1.,0.707106781186548,1.,      167P    255
2.35,-2.87791997799628D-16,5.5,2.35,-2.35,5.5,                       167P    256
-1.43895998899814D-16,-2.35,5.5,-2.35,-2.35,5.5,-2.35,0.,5.5,        167P    257
-2.35,2.35,5.5,-1.43895998899814D-16,2.35,5.5,2.35,2.35,5.5,         167P    258
2.35,2.87791997799628D-16,5.5,-3.14159265358979,                     167P    259
3.14159265358979,0.,0.,0.;                                           167P    260
126,1,1,0,0,1,0,0.,0.,1.1063829787234,1.1063829787234,1.,1.,         169P    261
2.35,0.,5.5,2.35,0.,2.9,0.,1.1063829787234,0.,0.,0.;                 169P    262
126,8,2,0,1,0,0,-3.14159265358979,-3.14159265358979,                 171P    263
-3.14159265358979,-1.5707963267949,-1.5707963267949,0.,0.,           171P    264
1.5707963267949,1.5707963267949,3.14159265358979,                    171P    265
3.14159265358979,3.14159265358979,1.,0.707106781186548,1.,           171P    266
0.707106781186548,1.,0.707106781186548,1.,0.707106781186548,1.,      171P    267
2.35,-2.87791997799628D-16,2.9,2.35,-2.35,2.9,                       171P    268
-1.43895998899814D-16,-2.35,2.9,-2.35,-2.35,2.9,-2.35,0.,2.9,        171P    269
-2.35,2.35,2.9,-1.43895998899814D-16,2.35,2.9,2.35,2.35,2.9,         171P    270
2.35,2.87791997799628D-16,2.9,-3.14159265358979,                     171P    271
3.14159265358979,0.,0.,0.;                                           171P    272
126,8,2,0,1,0,0,-3.14159265358979,-3.14159265358979,                 173P    273
-3.14159265358979,-1.5707963267949,-1.5707963267949,0.,0.,           173P    274
1.5707963267949,1.5707963267949,3.14159265358979,                    173P    275
3.14159265358979,3.14159265358979,1.,0.707106781186548,1.,           173P    276
0.707106781186548,1.,0.707106781186548,1.,0.707106781186548,1.,      173P    277
1.,1.22464679914735D-16,2.9,1.,1.,2.9,-6.12323399573677D-17,1.,      173P    278
2.9,-1.,1.,2.9,-1.,0.,2.9,-1.,-1.,2.9,-6.12323399573677D-17,-1.,     173P    279
2.9,1.,-1.,2.9,1.,-1.22464679914735D-16,2.9,-3.14159265358979,       173P    280
3.14159265358979,0.,0.,0.;                                           173P    281
126,1,1,0,0,1,0,2.6,2.6,3.4,3.4,1.,1.,1.,0.,2.9,1.,0.,2.1,2.6,       175P    282
3.4,0.,0.,0.;                                                        175P    283
126,8,2,0,0,0,0,-2.03197058762965,-2.03197058762965,                 177P    284
-2.03197058762965,-0.738579777324789,-0.738579777324789,             177P    285
0.554811032980072,0.554811032980072,1.84820184328493,                177P    286
1.84820184328493,3.14159265358979,3.14159265358979,                  177P    287
3.14159265358979,1.,0.798079344035599,1.,0.798079344035598,1.,       177P    288
0.7980793440356,1.,0.798079344035598,1.,-2.10713075057055,3.4,       177P    289
5.5,-4.67414126029125,1.80910976997933,5.5,-3.84707681233427,        177P    290
-1.09544511501033,5.5,-3.02001236437729,-4.,5.5,0.,-4.,5.5,          177P    291
3.02001236437729,-4.,5.5,3.84707681233427,-1.09544511501033,5.5,     177P    292
4.67414126029125,1.80910976997933,5.5,2.10713075057055,3.4,5.5,      177P    293
-2.03197058762965,3.14159265358979,0.,0.,0.;                         177P    294
126,2,2,0,0,0,0,3.14159265358979,3.14159265358979,                   179P    295
3.14159265358979,4.25121471954994,4.25121471954994,                  179P    296
4.25121471954994,1.,0.850000000000001,1.,2.10713075057055,3.4,       179P    297
5.5,-5.55111512312578D-16,4.70588235294118,5.5,                      179P    298
-2.10713075057055,3.4,5.5,3.14159265358979,4.25121471954994,0.,      179P    299
0.,0.;                                                               179P    300
126,1,1,0,0,1,0,-1.375,-1.375,-0.5,-0.5,1.,1.,2.10713075057055,      181P    301
3.4,5.5,2.10713075057055,3.4,2.,-1.375,-0.5,0.,0.,0.;                181P    302
128,1,1,1,1,0,0,1,0,0,-1.03564346247147,-1.03564346247147,           183P    303
1.03564346247147,1.03564346247147,-0.341,-0.341,0.341,0.341,1.,      183P    304
1.,1.,1.,2.09713075057055,-3.41,2.,22.81,-3.41,2.,                   183P    305
2.09713075057055,3.41,2.,22.81,3.41,2.,-1.03564346247147,            183P    306
1.03564346247147,-0.341,0.341;                                       183P    307
128,1,4,1,2,0,0,0,0,0,0.,0.,0.8,0.8,0.,0.,0.,1.52153319903764,       185P    308
1.52153319903764,3.04306639807527,3.04306639807527,                  185P    309
3.04306639807527,1.,1.,0.724307670960381,0.724307670960381,1.,       185P    310
1.,0.724307670960381,0.724307670960381,1.,1.,20.4231080110603,       185P    311
-2.49696704375784,2.,20.4231080110603,-2.49696704375784,0.,22.8,     185P    312
-2.37977909528454,2.,22.8,-2.37977909528454,0.,22.8,                 185P    313
4.44089209850063D-15,2.,22.8,4.44089209850063D-15,0.,22.8,           185P    314
2.37977909528455,2.,22.8,2.37977909528455,0.,20.4231080110603,       185P    315
2.49696704375784,2.,20.4231080110603,2.49696704375784,0.,0.,0.8,     185P    316
0.,3.04306639807527;                                                 185P    317
128,1,1,1,1,0,0,1,0,0,-0.00100000000000089,-0.00100000000000089,     187P    318
1.83482248739303,1.83482248739303,-0.001,-0.001,0.201,0.201,1.,      187P    319
1.,1.,1.,20.4330958792353,2.4964746117136,-0.01,                     187P    320
2.09714288239551,3.40049243204424,-0.01,20.4330958792353,            187P    321
2.4964746117136,2.01,2.09714288239551,3.40049243204424,2.01,         187P    322
-0.00100000000000089,1.83482248739303,-0.001,0.201;                  187P    323
128,1,1,1,1,0,0,1,0,0,-0.00100000000000022,-0.00100000000000022,     189P    324
1.83482248739303,1.83482248739303,-0.001,-0.001,0.201,0.201,1.,      189P    325
1.,1.,1.,2.09714288239551,-3.40049243204424,-0.01,                   189P    326
20.4330958792353,-2.4964746117136,-0.01,2.09714288239551,            189P    327
-3.40049243204424,2.01,20.4330958792353,-2.4964746117136,2.01,       189P    328
-0.00100000000000022,1.83482248739303,-0.001,0.201;                  189P    329
128,1,8,1,2,0,1,0,0,1,0.,0.,3.33333333333333,3.33333333333333,       191P    330
-3.14159265358979,-3.14159265358979,-3.14159265358979,               191P    331
-1.5707963267949,-1.5707963267949,0.,0.,1.5707963267949,             191P    332
1.5707963267949,3.14159265358979,3.14159265358979,                   191P    333
3.14159265358979,1.,1.,0.707106781186548,0.707106781186548,1.,       191P    334
1.,0.707106781186548,0.707106781186548,1.,1.,0.707106781186548,      191P    335
0.707106781186548,1.,1.,0.707106781186548,0.707106781186548,1.,      191P    336
1.,14.7,0.,0.,14.7,0.,2.,14.7,-0.6,0.,14.7,-0.6,2.,15.3,             191P    337
-0.600000000000001,0.,15.3,-0.600000000000001,2.,15.9,-0.6,0.,       191P    338
15.9,-0.6,2.,15.9,0.,0.,15.9,0.,2.,15.9,0.6,0.,15.9,0.6,2.,15.3,     191P    339
0.600000000000001,0.,15.3,0.600000000000001,2.,14.7,0.6,0.,14.7,     191P    340
0.6,2.,14.7,0.,0.,14.7,0.,2.,0.,3.33333333333333,                    191P    341
-3.14159265358979,3.14159265358979;                                  191P    342
128,1,8,1,2,0,1,0,0,1,0.,0.,3.33333333333333,3.33333333333333,       193P    343
-3.14159265358979,-3.14159265358979,-3.14159265358979,               193P    344
-1.5707963267949,-1.5707963267949,0.,0.,1.5707963267949,             193P    345
1.5707963267949,3.14159265358979,3.14159265358979,                   193P    346
3.14159265358979,1.,1.,0.707106781186548,0.707106781186548,1.,       193P    347
1.,0.707106781186548,0.707106781186548,1.,1.,0.707106781186548,      193P    348
0.707106781186548,1.,1.,0.707106781186548,0.707106781186548,1.,      193P    349
1.,12.2,0.,0.,12.2,0.,2.,12.2,-0.6,0.,12.2,-0.6,2.,12.8,             193P    350
-0.600000000000001,0.,12.8,-0.600000000000001,2.,13.4,-0.6,0.,       193P    351
13.4,-0.6,2.,13.4,0.,0.,13.4,0.,2.,13.4,0.6,0.,13.4,0.6,2.,12.8,     193P    352
0.600000000000001,0.,12.8,0.600000000000001,2.,12.2,0.6,0.,12.2,     193P    353
0.6,2.,12.2,0.,0.,12.2,0.,2.,0.,3.33333333333333,                    193P    354
-3.14159265358979,3.14159265358979;                                  193P    355
128,1,8,1,2,0,1,0,0,1,0.,0.,3.33333333333333,3.33333333333333,       195P    356
-3.14159265358979,-3.14159265358979,-3.14159265358979,               195P    357
-1.5707963267949,-1.5707963267949,0.,0.,1.5707963267949,             195P    358
1.5707963267949,3.14159265358979,3.14159265358979,                   195P    359
3.14159265358979,1.,1.,0.707106781186548,0.707106781186548,1.,       195P    360
1.,0.707106781186548,0.707106781186548,1.,1.,0.707106781186548,      195P    361
0.707106781186548,1.,1.,0.707106781186548,0.707106781186548,1.,      195P    362
1.,9.7,0.,0.,9.7,0.,2.,9.7,-0.6,0.,9.7,-0.6,2.,10.3,                 195P    363
-0.600000000000001,0.,10.3,-0.600000000000001,2.,10.9,-0.6,0.,       195P    364
10.9,-0.6,2.,10.9,0.,0.,10.9,0.,2.,10.9,0.6,0.,10.9,0.6,2.,10.3,     195P    365
0.600000000000001,0.,10.3,0.600000000000001,2.,9.7,0.6,0.,9.7,       195P    366
0.6,2.,9.7,0.,0.,9.7,0.,2.,0.,3.33333333333333,                      195P    367
-3.14159265358979,3.14159265358979;                                  195P    368
128,1,8,1,2,0,1,0,0,1,0.,0.,3.33333333333333,3.33333333333333,       197P    369
-3.14159265358979,-3.14159265358979,-3.14159265358979,               197P    370
-1.5707963267949,-1.5707963267949,0.,0.,1.5707963267949,             197P    371
1.5707963267949,3.14159265358979,3.14159265358979,                   197P    372
3.14159265358979,1.,1.,0.707106781186548,0.707106781186548,1.,       197P    373
1.,0.707106781186548,0.707106781186548,1.,1.,0.707106781186548,      197P    374
0.707106781186548,1.,1.,0.707106781186548,0.707106781186548,1.,      197P    375
1.,17.2,0.,0.,17.2,0.,2.,17.2,-0.6,0.,17.2,-0.6,2.,17.8,             197P    376
-0.600000000000001,0.,17.8,-0.600000000000001,2.,18.4,-0.6,0.,       197P    377
18.4,-0.6,2.,18.4,0.,0.,18.4,0.,2.,18.4,0.6,0.,18.4,0.6,2.,17.8,     197P    378
0.600000000000001,0.,17.8,0.600000000000001,2.,17.2,0.6,0.,17.2,     197P    379
0.6,2.,17.2,0.,0.,17.2,0.,2.,0.,3.33333333333333,                    197P    380
-3.14159265358979,3.14159265358979;                                  197P    381
128,1,8,1,2,0,1,0,0,1,0.,0.,3.33333333333333,3.33333333333333,       199P    382
-3.14159265358979,-3.14159265358979,-3.14159265358979,               199P    383
-1.5707963267949,-1.5707963267949,0.,0.,1.5707963267949,             199P    384
1.5707963267949,3.14159265358979,3.14159265358979,                   199P    385
3.14159265358979,1.,1.,0.707106781186548,0.707106781186548,1.,       199P    386
1.,0.707106781186548,0.707106781186548,1.,1.,0.707106781186548,      199P    387
0.707106781186548,1.,1.,0.707106781186548,0.707106781186548,1.,      199P    388
1.,19.7,0.,0.,19.7,0.,2.,19.7,-0.6,0.,19.7,-0.6,2.,20.3,             199P    389
-0.600000000000001,0.,20.3,-0.600000000000001,2.,20.9,-0.6,0.,       199P    390
20.9,-0.6,2.,20.9,0.,0.,20.9,0.,2.,20.9,0.6,0.,20.9,0.6,2.,20.3,     199P    391
0.600000000000001,0.,20.3,0.600000000000001,2.,19.7,0.6,0.,19.7,     199P    392
0.6,2.,19.7,0.,0.,19.7,0.,2.,0.,3.33333333333333,                    199P    393
-3.14159265358979,3.14159265358979;                                  199P    394
128,1,1,1,1,0,0,1,0,0,-0.527790256660168,-0.527790256660168,         201P    395
2.281,2.281,-0.521578135240964,-0.521578135240964,                   201P    396
0.521578135240964,0.521578135240964,1.,1.,1.,1.,22.81,               201P    397
-5.21578135240964,0.,-5.27790256660168,-5.21578135240964,0.,         201P    398
22.81,5.21578135240964,0.,-5.27790256660168,5.21578135240964,0.,     201P    399
-0.527790256660168,2.281,-0.521578135240964,0.521578135240964;       201P    400
128,1,8,1,2,0,1,0,0,1,0.,0.,0.67741935483871,0.67741935483871,       203P    401
-3.14159265358979,-3.14159265358979,-3.14159265358979,               203P    402
-1.5707963267949,-1.5707963267949,0.,0.,1.5707963267949,             203P    403
1.5707963267949,3.14159265358979,3.14159265358979,                   203P    404
3.14159265358979,1.,1.,0.707106781186548,0.707106781186548,1.,       203P    405
1.,0.707106781186548,0.707106781186548,1.,1.,0.707106781186548,      203P    406
0.707106781186548,1.,1.,0.707106781186548,0.707106781186548,1.,      203P    407
1.,-3.1,0.,0.,-3.1,0.,2.1,-3.1,-3.1,0.,-3.1,-3.1,2.1,0.,-3.1,0.,     203P    408
0.,-3.1,2.1,3.1,-3.1,0.,3.1,-3.1,2.1,3.1,0.,0.,3.1,0.,2.1,3.1,       203P    409
3.1,0.,3.1,3.1,2.1,0.,3.1,0.,0.,3.1,2.1,-3.1,3.1,0.,-3.1,3.1,        203P    410
2.1,-3.1,0.,0.,-3.1,0.,2.1,0.,0.67741935483871,                      203P    411
-3.14159265358979,3.14159265358979;                                  203P    412
128,1,1,1,1,0,0,1,0,0,-0.311,-0.311,0.311,0.311,-0.311,-0.311,       205P    413
0.311,0.311,1.,1.,1.,1.,3.11,-3.11,2.1,-3.11,-3.11,2.1,3.11,         205P    414
3.11,2.1,-3.11,3.11,2.1,-0.311,0.311,-0.311,0.311;                   205P    415
128,1,8,1,2,0,1,0,0,1,0.,0.,1.1063829787234,1.1063829787234,         207P    416
-3.14159265358979,-3.14159265358979,-3.14159265358979,               207P    417
-1.5707963267949,-1.5707963267949,0.,0.,1.5707963267949,             207P    418
1.5707963267949,3.14159265358979,3.14159265358979,                   207P    419
3.14159265358979,1.,1.,0.707106781186548,0.707106781186548,1.,       207P    420
1.,0.707106781186548,0.707106781186548,1.,1.,0.707106781186548,      207P    421
0.707106781186548,1.,1.,0.707106781186548,0.707106781186548,1.,      207P    422
1.,2.35,0.,5.5,2.35,0.,2.9,2.35,-2.35,5.5,2.35,-2.35,2.9,0.,         207P    423
-2.35,5.5,0.,-2.35,2.9,-2.35,-2.35,5.5,-2.35,-2.35,2.9,-2.35,0.,     207P    424
5.5,-2.35,0.,2.9,-2.35,2.35,5.5,-2.35,2.35,2.9,0.,2.35,5.5,0.,       207P    425
2.35,2.9,2.35,2.35,5.5,2.35,2.35,2.9,2.35,0.,5.5,2.35,0.,2.9,0.,     207P    426
1.1063829787234,-3.14159265358979,3.14159265358979;                  207P    427
128,1,1,1,1,0,0,1,0,0,-0.236,-0.236,0.236,0.236,-0.236,-0.236,       209P    428
0.236,0.236,1.,1.,1.,1.,2.36,2.36,2.9,-2.36,2.36,2.9,2.36,-2.36,     209P    429
2.9,-2.36,-2.36,2.9,-0.236,0.236,-0.236,0.236;                       209P    430
128,1,8,1,2,0,1,0,0,1,2.6,2.6,3.4,3.4,-3.14159265358979,             211P    431
-3.14159265358979,-3.14159265358979,-1.5707963267949,                211P    432
-1.5707963267949,0.,0.,1.5707963267949,1.5707963267949,              211P    433
3.14159265358979,3.14159265358979,3.14159265358979,1.,1.,            211P    434
0.707106781186548,0.707106781186548,1.,1.,0.707106781186548,         211P    435
0.707106781186548,1.,1.,0.707106781186548,0.707106781186548,1.,      211P    436
1.,0.707106781186548,0.707106781186548,1.,1.,1.,0.,2.9,1.,0.,        211P    437
2.1,1.,-1.,2.9,1.,-1.,2.1,0.,-1.,2.9,0.,-1.,2.1,-1.,-1.,2.9,-1.,     211P    438
-1.,2.1,-1.,0.,2.9,-1.,0.,2.1,-1.,1.,2.9,-1.,1.,2.1,0.,1.,2.9,       211P    439
0.,1.,2.1,1.,1.,2.9,1.,1.,2.1,1.,0.,2.9,1.,0.,2.1,2.6,3.4,           211P    440
-3.14159265358979,3.14159265358979;                                  211P    441
128,1,8,1,2,0,1,0,0,1,0.,0.,1.375,1.375,-3.14159265358979,           213P    442
-3.14159265358979,-3.14159265358979,-1.5707963267949,                213P    443
-1.5707963267949,0.,0.,1.5707963267949,1.5707963267949,              213P    444
3.14159265358979,3.14159265358979,3.14159265358979,1.,1.,            213P    445
0.707106781186548,0.707106781186548,1.,1.,0.707106781186548,         213P    446
0.707106781186548,1.,1.,0.707106781186548,0.707106781186548,1.,      213P    447
1.,0.707106781186548,0.707106781186548,1.,1.,2.10713075057055,       213P    448
3.4,5.5,2.10713075057055,3.4,0.,-1.29286924942945,                   213P    449
5.50713075057055,5.5,-1.29286924942945,5.50713075057055,0.,-3.4,     213P    450
2.10713075057055,5.5,-3.4,2.10713075057055,0.,-5.50713075057055,     213P    451
-1.29286924942945,5.5,-5.50713075057055,-1.29286924942945,0.,        213P    452
-2.10713075057055,-3.4,5.5,-2.10713075057055,-3.4,0.,                213P    453
1.29286924942945,-5.50713075057055,5.5,1.29286924942945,             213P    454
-5.50713075057055,0.,3.4,-2.10713075057055,5.5,3.4,                  213P    455
-2.10713075057055,0.,5.50713075057055,1.29286924942945,5.5,          213P    456
5.50713075057055,1.29286924942945,0.,2.10713075057055,3.4,5.5,       213P    457
2.10713075057055,3.4,0.,0.,1.375,-3.14159265358979,                  213P    458
3.14159265358979;                                                    213P    459
128,1,1,1,1,0,0,1,0,0,-0.468414126029125,-0.468414126029125,         215P    460
0.468414126029125,0.468414126029125,-0.401,-0.401,                   215P    461
0.471588235294118,0.471588235294118,1.,1.,1.,1.,                     215P    462
-4.68414126029124,-4.01,5.5,4.68414126029125,-4.01,5.5,              215P    463
-4.68414126029124,4.71588235294118,5.5,4.68414126029125,             215P    464
4.71588235294118,5.5,-0.468414126029125,0.468414126029125,           215P    465
-0.401,0.471588235294118;                                            215P    466
502,26,20.4231080110603,-2.49696704375784,2.,20.4231080110603,       217P    467
2.49696704375784,2.,2.10713075057055,3.4,2.,2.10713075057055,        217P    468
-3.4,2.,14.7,-7.34788079488413D-17,2.,12.2,                          217P    469
-7.34788079488413D-17,2.,9.7,-7.34788079488413D-17,2.,17.2,          217P    470
-7.34788079488413D-17,2.,19.7,-7.34788079488413D-17,2.,              217P    471
20.4231080110603,-2.49696704375784,0.,20.4231080110603,              217P    472
2.49696704375784,0.,2.10713075057055,3.4,0.,2.10713075057055,        217P    473
-3.4,0.,14.7,-7.34788079488413D-17,0.,12.2,                          217P    474
-7.34788079488413D-17,0.,9.7,-7.34788079488413D-17,0.,17.2,          217P    475
-7.34788079488413D-17,0.,19.7,-7.34788079488413D-17,0.,-3.1,         217P    476
-3.7964050773568D-16,0.,-3.1,-3.7964050773568D-16,2.1,1.,            217P    477
-1.22464679914735D-16,2.1,2.35,2.87791997799628D-16,5.5,2.35,        217P    478
2.87791997799628D-16,2.9,1.,1.22464679914735D-16,2.9,                217P    479
-2.10713075057055,3.4,5.5,2.10713075057055,3.4,5.5;                  217P    480
504,39,105,217,1,217,2,107,217,2,217,3,109,217,4,217,3,111,217,      219P    481
4,217,1,113,217,5,217,5,115,217,6,217,6,117,217,7,217,7,119,217,     219P    482
8,217,8,121,217,9,217,9,123,217,10,217,11,125,217,11,217,2,127,      219P    483
217,10,217,1,129,217,12,217,11,131,217,3,217,12,133,217,13,217,      219P    484
10,135,217,13,217,4,137,217,5,217,14,139,217,14,217,14,141,217,      219P    485
6,217,15,143,217,15,217,15,145,217,7,217,16,147,217,16,217,16,       219P    486
149,217,8,217,17,151,217,17,217,17,153,217,9,217,18,155,217,18,      219P    487
217,18,157,217,12,217,13,159,217,19,217,19,161,217,19,217,20,        219P    488
163,217,20,217,20,165,217,21,217,21,167,217,22,217,22,169,217,       219P    489
22,217,23,171,217,23,217,23,173,217,24,217,24,175,217,24,217,21,     219P    490
177,217,25,217,26,179,217,26,217,25,181,217,26,217,3;                219P    491
406,1,10Hボディ1;                                                 221P    492
406,1,24Hコンポーネント1:1;                                   223P    493
314,62.7450980392157,62.7450980392157,62.7450980392157,15H鋼 -      225P    494
サテン;                                                           225P    495
S      1G      3D    226P    495                                        T      1
